<?xml version="1.0" encoding="UTF-8" standalone="no"?>
<!DOCTYPE svg PUBLIC "-//W3C//DTD SVG 1.1//EN" "http://www.w3.org/Graphics/SVG/1.1/DTD/svg11.dtd">
<svg version="1.1" xmlns="http://www.w3.org/2000/svg" xmlns:xlink="http://www.w3.org/1999/xlink" preserveAspectRatio="xMidYMid meet" viewBox="108.99950359712221 58.99999999999997 384.00049640287784 384" width="1000" height="1000"><defs><path d="M443.53 100L156.47 100L228.23 80L300 60L371.76 80L443.53 100ZM210 100L388.35 100L343.76 87.77L299.17 75.54L254.58 87.77L210 100Z" id="a5xqBeKMf"></path><path d="M300 440L228.23 420L156.47 400L443.53 400L371.76 420L300 440ZM254.58 412.23L299.17 424.46L343.76 412.23L388.35 400L210 400L254.58 412.23Z" id="d2ArQ4hZW3"></path><path d="M130 321.76L110 250L130 178.23L150 106.47L150 393.53L130 321.76ZM125.54 249.17L137.77 293.76L150 338.35L150 160L137.77 204.58L125.54 249.17Z" id="b161eJbxmd"></path><path d="M490 260L470 331.76L450 403.53L450 348.35L462.23 303.76L474.46 259.17L462.23 214.58L450 170L450 116.47L470 188.23L490 260Z" id="bhLS3RPKs"></path><path d="M299.17 105.54L254.58 117.77L210 130L228.23 110L300 90L371.76 110L390 130L388.35 130L343.76 117.77L299.17 105.54Z" id="b3er9AD2xS"></path><path d="M300 410L228.23 390L210 370L254.58 382.23L299.17 394.46L343.76 382.23L388.34 370L390 370L371.76 390L300 410Z" id="anUmZx6tR"></path><path d="M140 250L160 178.23L180 160L167.77 204.58L155.54 249.17L167.77 293.76L180 338.35L180 340L160 321.76L140 250Z" id="e3zz5SpkSe"></path><path d="M460 260L440 331.76L420 350L420 348.35L432.23 303.76L444.46 259.17L432.23 214.58L420 170L440 188.23L460 260Z" id="c1y3hFSFuP"></path></defs><g><g><use xlink:href="#a5xqBeKMf" opacity="1" fill="#ffffff" fill-opacity="1"></use></g><g><use xlink:href="#d2ArQ4hZW3" opacity="1" fill="#ffffff" fill-opacity="1"></use></g><g><use xlink:href="#b161eJbxmd" opacity="1" fill="#ffffff" fill-opacity="1"></use></g><g><use xlink:href="#bhLS3RPKs" opacity="1" fill="#ffffff" fill-opacity="1"></use></g><g><use xlink:href="#b3er9AD2xS" opacity="1" fill="#ffffff" fill-opacity="1"></use></g><g><use xlink:href="#anUmZx6tR" opacity="1" fill="#ffffff" fill-opacity="1"></use></g><g><use xlink:href="#e3zz5SpkSe" opacity="1" fill="#ffffff" fill-opacity="1"></use></g><g><use xlink:href="#c1y3hFSFuP" opacity="1" fill="#ffffff" fill-opacity="1"></use></g></g></svg>